<svg xmlns="http://www.w3.org/2000/svg" width="97.343" height="148.242" viewBox="0 0 97.343 148.242"><defs><style>.a{fill:#b6ee1a;}</style></defs><g transform="translate(48.672 74.121)"><g transform="translate(-48.672 -74.121)"><path class="a" d="M47.7,79.9h-.2L51,79A17.3,17.3,0,0,0,47.7,79.9Z" transform="translate(0.019 0.142)"/><path class="a" d="M15.6,99.2a33.3,33.3,0,0,0,51.3,28l.6-.4.7-.5.2-.2a17.9,17.9,0,0,0,7.1-14.3,17.7,17.7,0,0,0-4-11.3,16.9,16.9,0,0,0-2.2-2.2A17.8,17.8,0,0,0,57.8,94a11.4,11.4,0,0,1-11.6,19.3H46l-1.7-.9h0L42.4,111a17.4,17.4,0,0,1-2.2-2.2,18,18,0,0,1,5-27.6h.1l2.3-1L51,79a32.7,32.7,0,0,1,6.6-.7A33.5,33.5,0,0,1,77,139.2l-.8.5-1,.7A48.893,48.893,0,1,1,25.6,56.2a32.6,32.6,0,0,1-7.1-10.6,13,13,0,0,1-4.6.8,13.2,13.2,0,1,1,4.4-25.6,32.9,32.9,0,0,1,61.3,0A13.2,13.2,0,1,1,84,46.4a13,13,0,0,1-4.6-.8A33,33,0,0,1,48.9,65.9,33.3,33.3,0,0,0,15.6,99.2Z" transform="translate(0.019 0.142)"/><path class="a" d="M46,113.2l-1.7-.9Z" transform="translate(0.019 0.142)"/></g></g></svg>