<svg xmlns="http://www.w3.org/2000/svg" width="76.806" height="28.195" viewBox="0 0 76.806 28.195"><defs><style>.a{fill:#fff;}</style></defs><g transform="translate(37.676 14.071)"><g transform="translate(-37.676 -14.071)"><path class="a" d="M47.719,79.252H47.7l.133-.038L48,79.176l.361-.076A3.3,3.3,0,0,0,47.719,79.252Z" transform="translate(-38.641 -64.08)"/><path class="a" d="M2.958,18.805a6.324,6.324,0,0,0,9.723,5.355l.114-.076.133-.095.038-.038a3.4,3.4,0,0,0,1.367-2.678,3.361,3.361,0,0,0-.76-2.146,3.209,3.209,0,0,0-.4-.418,3.38,3.38,0,0,0-2.2-.855A2.166,2.166,0,0,1,8.75,21.521H8.712l-.323-.19h0l-.361-.266a3.323,3.323,0,0,1-.418-.418,3.418,3.418,0,0,1,.968-5.26H8.6l.437-.19h.019l.133-.038.171-.038.361-.076a6.21,6.21,0,0,1,1.253-.114A6.362,6.362,0,0,1,14.6,26.5l-.152.095-.19.114a9.191,9.191,0,0,1-5.013,1.443A9.286,9.286,0,0,1,4.895,10.678,6.21,6.21,0,0,1,3.566,8.665a2.469,2.469,0,0,1-.874.152,2.507,2.507,0,1,1,.855-4.861,6.248,6.248,0,0,1,11.641.057,2.507,2.507,0,1,1-.057,4.709,6.267,6.267,0,0,1-5.811,3.8H9.3a6.343,6.343,0,0,0-6.343,6.286Z" transform="translate(0.006 -0.007)"/><path class="a" d="M44.523,112.39l-.323-.19Z" transform="translate(-35.805 -90.895)"/><g transform="translate(22.599 6.322)"><path class="a" d="M129.881,54.222a1.449,1.449,0,0,0-1.5-1.614,1.42,1.42,0,0,0-1.519,1.6v4.273h-2.431V54.184a1.512,1.512,0,1,0-3.019,0v4.273H119l.038-7.881h2.412v.987a2.821,2.821,0,0,1,2.317-1.063,3.1,3.1,0,0,1,2.678,1.481,3.171,3.171,0,0,1,2.659-1.462,3.028,3.028,0,0,1,3.19,3.38v4.615h-2.431Z" transform="translate(-119 -47.234)"/><path class="a" d="M200.269,40.5l-.038,8.071H203.4v1.861h-5.6l.038-9.932Z" transform="translate(-182.836 -39.133)"/><path class="a" d="M232.4,34.61a1.439,1.439,0,0,1,2.867.019,1.316,1.316,0,0,1-1.424,1.291A1.348,1.348,0,0,1,232.4,34.61Zm.209,2.127h2.412l-.038,7.881h-2.412Z" transform="translate(-210.864 -33.3)"/><path class="a" d="M260.75,54.794c0-1.082-.589-1.671-1.5-1.671a1.466,1.466,0,0,0-1.519,1.652v4.273H255.3l.038-7.881h2.412v1.044a2.886,2.886,0,0,1,2.393-1.12c1.823,0,3.038,1.253,3.019,3.38v4.615h-2.431Z" transform="translate(-229.417 -47.711)"/><path class="a" d="M306.494,51.2a2.736,2.736,0,0,1,2.431,1.234v-1.12h2.431l-.038,7.881a3.633,3.633,0,0,1-3.969,3.874c-2.355-.019-3.874-1.2-4.064-3.1h2.374a1.488,1.488,0,0,0,1.576.987,1.6,1.6,0,0,0,1.652-1.8V58.074a2.8,2.8,0,0,1-2.431,1.234c-1.937-.019-3.456-1.6-3.456-4.083S304.557,51.18,306.494,51.2Zm.7,2.108a1.747,1.747,0,0,0-1.728,1.937,1.733,1.733,0,1,0,1.728-1.937Z" transform="translate(-268.059 -47.8)"/><path class="a" d="M357.644,59.428a3.867,3.867,0,0,1-4.045-4.083,4.1,4.1,0,1,1,4.045,4.083Zm.019-2.089a1.724,1.724,0,0,0,1.671-1.956c0-1.329-.779-1.975-1.633-1.975s-1.652.608-1.652,1.956.722,1.975,1.6,1.975Z" transform="translate(-309.049 -47.882)"/></g></g></g></svg>