<svg xmlns="http://www.w3.org/2000/svg" xmlns:xlink="http://www.w3.org/1999/xlink" width="134" height="134" viewBox="0 0 134 134"><defs><style>.a,.b,.c,.e,.f{fill:none;}.b{stroke:#000536;}.b,.c{stroke-width:5px;}.c{stroke:#b6ee1a;}.d{clip-path:url(#a);}.e,.f{stroke:#000;stroke-linecap:round;stroke-miterlimit:10;}.e{stroke-width:2.373px;}.f{stroke-width:2.373px;}.g{fill:#b6ee1a;}.h{stroke:none;}</style><clipPath id="a"><rect class="a" width="66.853" height="75.336"/></clipPath></defs><g transform="translate(-165 -1373)"><g class="b" transform="translate(165 1373)"><circle class="h" cx="67" cy="67" r="67"/><circle class="a" cx="67" cy="67" r="64.5"/></g><g class="c" transform="translate(175 1383)"><circle class="h" cx="57" cy="57" r="57"/><circle class="a" cx="57" cy="57" r="54.5"/></g><g transform="translate(230.449 1437.668)"><g class="d" transform="translate(-33.426 -37.668)"><path class="e" d="M37.47,106.545c0-9.788-5.813-18.745-16.135-18.745S5.2,96.817,5.2,106.545" transform="translate(-2.115 -35.718)"/><path class="e" d="M35.68,57.54A10.44,10.44,0,1,1,25.24,47.1,10.44,10.44,0,0,1,35.68,57.54Z" transform="translate(-6.021 -19.161)"/><path class="e" d="M88.61,74.945C88.61,65.157,82.8,56.2,72.476,56.2S56.4,65.217,56.4,74.945" transform="translate(-22.944 -22.863)"/><path class="f" d="M86.88,25.94A10.44,10.44,0,1,1,76.44,15.5,10.44,10.44,0,0,1,86.88,25.94Z" transform="translate(-26.849 -6.306)"/><path class="g" d="M96.725,93.263A3.263,3.263,0,1,1,93.463,90a3.263,3.263,0,0,1,3.263,3.263" transform="translate(-36.694 -36.613)"/><path class="g" d="M80.352,111.076A2.076,2.076,0,1,1,78.276,109a2.076,2.076,0,0,1,2.076,2.076" transform="translate(-30.999 -44.342)"/><path class="g" d="M95.759,122.78A1.78,1.78,0,1,1,93.98,121a1.78,1.78,0,0,1,1.78,1.78" transform="translate(-37.508 -49.224)"/><path class="g" d="M12.7,83.99a1.542,1.542,0,1,1,.459-1.1,1.542,1.542,0,0,1-.459,1.1" transform="translate(-4.098 -33.094)"/><path class="g" d="M1.6,84.241a1.008,1.008,0,1,1,0-1.364,1.008,1.008,0,0,1,0,1.364" transform="translate(0.062 -33.582)"/><path class="g" d="M3.032,93.324a.83.83,0,1,1,.249-.593.83.83,0,0,1-.249.593" transform="translate(-0.659 -37.386)"/><path class="g" d="M51.539,28.669A2.669,2.669,0,1,1,48.869,26a2.669,2.669,0,0,1,2.669,2.669" transform="translate(-18.794 -10.577)"/><path class="g" d="M26.946,17.373A2.373,2.373,0,1,1,24.573,15a2.373,2.373,0,0,1,2.373,2.373" transform="translate(-9.031 -6.102)"/><path class="g" d="M42.352,2.076A2.076,2.076,0,1,1,40.276,0a2.076,2.076,0,0,1,2.076,2.076" transform="translate(-15.54)"/></g></g></g></svg>