<svg xmlns="http://www.w3.org/2000/svg" xmlns:xlink="http://www.w3.org/1999/xlink" width="134" height="134" viewBox="0 0 134 134"><defs><style>.a,.b,.c,.g{fill:none;}.b{stroke:#000536;}.b,.c{stroke-width:5px;}.c{stroke:#b6ee1a;}.d{clip-path:url(#a);}.e{fill:#b6ee1a;}.f{fill:#fff;}.g{stroke:#000;stroke-linecap:round;stroke-miterlimit:10;stroke-width:2.494px;}.h{stroke:none;}</style><clipPath id="a"><rect class="a" width="60" height="75"/></clipPath></defs><g transform="translate(-709 -1373)"><g class="b" transform="translate(709 1373)"><circle class="h" cx="67" cy="67" r="67"/><circle class="a" cx="67" cy="67" r="64.5"/></g><g class="c" transform="translate(719 1383)"><circle class="h" cx="57" cy="57" r="57"/><circle class="a" cx="57" cy="57" r="54.5"/></g><g transform="translate(774 1440.5)"><g class="d" transform="translate(-30 -37.5)"><path class="e" d="M87.152,81.6A3.576,3.576,0,1,1,83.576,78a3.59,3.59,0,0,1,3.576,3.6" transform="translate(-27.986 -26.882)"/><path class="e" d="M70.551,99.294A2.276,2.276,0,1,1,68.276,97a2.285,2.285,0,0,1,2.276,2.294" transform="translate(-23.088 -33.43)"/><path class="e" d="M85.9,110.966A1.951,1.951,0,1,1,83.951,109a1.958,1.958,0,0,1,1.951,1.966" transform="translate(-28.686 -37.565)"/><path class="e" d="M18.852,26.949A2.926,2.926,0,1,1,15.926,24a2.938,2.938,0,0,1,2.926,2.949" transform="translate(-4.548 -8.271)"/><path class="e" d="M5.2,15.621A2.6,2.6,0,1,1,2.6,13a2.611,2.611,0,0,1,2.6,2.621" transform="translate(0 -4.48)"/><path class="e" d="M22.551,2.294A2.276,2.276,0,1,1,20.276,0a2.285,2.285,0,0,1,2.276,2.294" transform="translate(-6.297)"/><path class="f" d="M61.387,50.652H43.117A8.617,8.617,0,0,1,34.6,42.066V23.651A8.617,8.617,0,0,1,43.118,15h18.27a8.617,8.617,0,0,1,8.582,8.651V42.066a8.616,8.616,0,0,1-8.582,8.585" transform="translate(-12.104 -5.17)"/><rect class="g" width="35.369" height="35.678" rx="8.616" transform="translate(22.496 9.83)"/><path class="f" d="M30.852,81.252H12.582A8.617,8.617,0,0,1,4,72.6V54.185A8.616,8.616,0,0,1,12.582,45.6h18.27a8.617,8.617,0,0,1,8.517,8.585V72.6a8.617,8.617,0,0,1-8.518,8.651" transform="translate(-1.399 -15.715)"/><rect class="g" width="35.369" height="35.678" rx="8.616" transform="translate(2.601 29.885)"/></g></g></g></svg>