<svg xmlns="http://www.w3.org/2000/svg" xmlns:xlink="http://www.w3.org/1999/xlink" width="54" height="54" viewBox="0 0 54 54"><defs><style>.a,.b,.d,.e{fill:none;}.b,.d,.e{stroke:#b6ee1a;}.b{stroke-width:4px;}.c{clip-path:url(#a);}.d,.e{stroke-linecap:round;stroke-miterlimit:10;}.d{stroke-width:1.466px;}.e{stroke-width:1.466px;}.f{fill:#b6ee1a;}.g{stroke:none;}</style><clipPath id="a"><rect class="a" width="39.837" height="29.528"/></clipPath></defs><g transform="translate(-1262.783 -1382.783)"><g class="b" transform="translate(1262.783 1382.783)"><circle class="g" cx="27" cy="27" r="27"/><circle class="a" cx="27" cy="27" r="25"/></g><g transform="translate(1289.944 1409.916)"><g class="c" transform="translate(-19.919 -14.764)"><path class="d" d="M49.4,54.281c0-6.047-3.592-11.581-9.968-11.581S29.5,48.271,29.5,54.281" transform="translate(-18.689 -27.051)"/><path class="e" d="M51.9,8.45A6.45,6.45,0,1,1,45.487,2,6.45,6.45,0,0,1,51.9,8.45Z" transform="translate(-24.707 -1.267)"/><path class="f" d="M17.531,30.916A2.016,2.016,0,1,1,15.516,28.9a2.016,2.016,0,0,1,2.016,2.016" transform="translate(-8.552 -18.309)"/><path class="f" d="M2.565,45.683A1.283,1.283,0,1,1,1.283,44.4a1.283,1.283,0,0,1,1.283,1.283" transform="translate(0 -28.128)"/><path class="f" d="M17.7,61a1.1,1.1,0,1,1-1.1-1.1A1.1,1.1,0,0,1,17.7,61" transform="translate(-9.819 -37.947)"/><path class="f" d="M79.865,33.2a2.016,2.016,0,1,1-.17,1.542,2.016,2.016,0,0,1,.17-1.542" transform="translate(-50.436 -20.374)"/><path class="f" d="M101.842,30.32a1.283,1.283,0,1,1,.513,1.722,1.283,1.283,0,0,1-.513-1.722" transform="translate(-64.424 -18.775)"/><path class="f" d="M96.26,10.423a1.1,1.1,0,1,1-.094.843,1.1,1.1,0,0,1,.094-.843" transform="translate(-60.894 -6.245)"/><path class="f" d="M69.9,68.781a.953.953,0,1,1,.283-.678.953.953,0,0,1-.283.678" transform="translate(-43.252 -42.54)"/><path class="f" d="M59.23,69.494a.623.623,0,1,1,0-.843.623.623,0,0,1,0,.843" transform="translate(-36.837 -43.364)"/><path class="f" d="M60.692,78.68a.513.513,0,1,1,.154-.366.513.513,0,0,1-.154.366" transform="translate(-37.897 -49.287)"/></g></g></g></svg>