<svg xmlns="http://www.w3.org/2000/svg" xmlns:xlink="http://www.w3.org/1999/xlink" width="134" height="134" viewBox="0 0 134 134"><defs><style>.a,.b,.c,.f{fill:none;}.b{stroke:#000536;}.b,.c{stroke-width:5px;}.c{stroke:#b6ee1a;}.d{clip-path:url(#a);}.e{fill:#b6ee1a;}.f{stroke:#000;stroke-linecap:round;stroke-miterlimit:10;stroke-width:4.249px;}.g{stroke:none;}</style><clipPath id="a"><rect class="a" width="65.694" height="60.943"/></clipPath></defs><g transform="translate(-1253 -1373)"><g class="b" transform="translate(1253 1373)"><circle class="g" cx="67" cy="67" r="67"/><circle class="a" cx="67" cy="67" r="64.5"/></g><g class="c" transform="translate(1263 1383)"><circle class="g" cx="57" cy="57" r="57"/><circle class="a" cx="57" cy="57" r="54.5"/></g><g transform="translate(1320.838 1436.472)"><g class="d" transform="translate(-32.847 -30.472)"><path class="e" d="M39.048,4.674A4.674,4.674,0,1,1,34.374,0a4.674,4.674,0,0,1,4.674,4.674" transform="translate(-4.459)"/><path class="e" d="M21.649,21.975A2.974,2.974,0,1,1,18.675,19a2.974,2.974,0,0,1,2.974,2.975" transform="translate(-2.357 -2.853)"/><path class="e" d="M36.8,33.55A2.55,2.55,0,1,1,34.25,31a2.55,2.55,0,0,1,2.55,2.55" transform="translate(-4.76 -4.654)"/><path class="e" d="M13.835,60.632a2.21,2.21,0,1,1,.657-1.572,2.21,2.21,0,0,1-.657,1.572" transform="translate(-1.512 -8.536)"/><path class="e" d="M2.357,60.472a1.445,1.445,0,1,1,0-1.955,1.445,1.445,0,0,1,0,1.955" transform="translate(0.023 -8.716)"/><path class="e" d="M3.643,69.44A1.19,1.19,0,1,1,4,68.59a1.19,1.19,0,0,1-.357.85" transform="translate(-0.243 -10.12)"/><path class="e" d="M57.234,50.705a3.144,3.144,0,1,1-2.408-.468,3.144,3.144,0,0,1,2.408.468" transform="translate(-7.857 -7.532)"/><path class="e" d="M60.445,67.243a2.04,2.04,0,1,1-2.8.595,2.04,2.04,0,0,1,2.8-.595" transform="translate(-8.604 -10.048)"/><path class="e" d="M72.633,44.15a1.7,1.7,0,1,1-1.3-.247,1.7,1.7,0,0,1,1.3.247" transform="translate(-10.509 -6.586)"/><path class="f" d="M8.7,30.637,28.332,51.544,64.876,15" transform="translate(-1.306 -2.252)"/></g></g></g></svg>