<svg xmlns="http://www.w3.org/2000/svg" width="198.308" height="74.062" viewBox="0 0 198.308 74.062"><defs><style>.a{fill:#b6ee1a;}</style></defs><path class="a" d="M47.75,79.5H47.7l.35-.1.45-.1.95-.2A8.7,8.7,0,0,0,47.75,79.5Z" transform="translate(-23.859 -39.572)"/><path class="a" d="M7.793,49.48A16.642,16.642,0,0,0,33.381,63.573l.3-.2.35-.25.1-.1a8.946,8.946,0,0,0,3.6-7.047,8.846,8.846,0,0,0-2-5.647,8.445,8.445,0,0,0-1.049-1.1,8.9,8.9,0,0,0-5.8-2.249,5.7,5.7,0,0,1-5.847,9.645h-.1l-.85-.5h0l-.95-.7a8.746,8.746,0,0,1-1.1-1.1,9,9,0,0,1,2.549-13.843h.05l1.149-.5h.05l.35-.1.45-.1.95-.2a16.343,16.343,0,0,1,3.3-.3A16.742,16.742,0,0,1,38.429,69.72l-.4.25-.5.3a24.188,24.188,0,0,1-13.194,3.8A24.438,24.438,0,0,1,12.891,28.09a16.342,16.342,0,0,1-3.5-5.3,6.5,6.5,0,0,1-2.3.4A6.6,6.6,0,1,1,9.343,10.4a16.442,16.442,0,0,1,30.635.15,6.6,6.6,0,1,1-.15,12.394,16.492,16.492,0,0,1-15.293,10h-.05A16.692,16.692,0,0,0,7.793,49.48Z" transform="translate(0.006 -0.007)"/><path class="a" d="M45.05,112.7l-.85-.5Z" transform="translate(-22.108 -56.13)"/><g transform="translate(59.474 16.639)"><path class="a" d="M147.636,60.3c0-2.7-1.549-4.2-3.948-4.248s-4,1.449-4,4.2V71.49h-6.4V60.2c0-2.7-1.549-4.2-3.948-4.2s-4,1.449-4,4.2V71.44H119l.1-20.74h6.347v2.6a7.425,7.425,0,0,1,6.1-2.8,8.145,8.145,0,0,1,7.047,3.9,8.346,8.346,0,0,1,7-3.848c5.148,0,8.446,3.3,8.4,8.9V71.59h-6.4Z" transform="translate(-119 -41.904)"/><path class="a" d="M204.3,40.5l-.1,21.24h8.346v4.9H197.8l.1-26.137Z" transform="translate(-158.419 -36.902)"/><path class="a" d="M232.4,36.748a3.786,3.786,0,0,1,7.546.05,3.464,3.464,0,0,1-3.748,3.4A3.547,3.547,0,0,1,232.4,36.748Zm.55,5.6H239.3l-.1,20.74h-6.347Z" transform="translate(-175.726 -33.3)"/><path class="a" d="M269.643,60.84c0-2.849-1.549-4.4-3.948-4.4s-4,1.549-4,4.348V72.035h-6.4l.1-20.74h6.347v2.749a7.6,7.6,0,0,1,6.3-2.949c4.8,0,8,3.3,7.946,8.9V72.135h-6.4Z" transform="translate(-187.183 -42.199)"/><path class="a" d="M312.2,51.2a7.2,7.2,0,0,1,6.4,3.248V51.5h6.4l-.1,20.74c-.05,5.547-3.248,10.245-10.445,10.2-6.2-.05-10.2-3.148-10.695-8.146H310c.4,1.549,1.949,2.6,4.148,2.6s4.3-1.249,4.348-4.748V69.291a7.374,7.374,0,0,1-6.4,3.248c-5.1-.05-9.1-4.2-9.1-10.745S307.1,51.15,312.2,51.2Zm1.849,5.547c-2.4,0-4.548,1.749-4.548,5.1s2.149,5.2,4.5,5.2,4.548-1.8,4.548-5.1-2.1-5.2-4.5-5.2Z" transform="translate(-211.044 -42.254)"/><path class="a" d="M364.245,72.69c-6.1-.05-10.695-4.148-10.645-10.745S358.4,51.3,364.444,51.3s10.795,4.148,10.745,10.745S370.342,72.74,364.245,72.69Zm.05-5.5c2.249,0,4.4-1.649,4.4-5.148s-2.049-5.2-4.3-5.2-4.348,1.6-4.348,5.148,1.9,5.2,4.2,5.2Z" transform="translate(-236.356 -42.304)"/></g></svg>