<svg xmlns="http://www.w3.org/2000/svg" xmlns:xlink="http://www.w3.org/1999/xlink" width="156.207" height="82.042" viewBox="0 0 156.207 82.042"><defs><style>.a{fill:none;}.b{clip-path:url(#a);}.c{fill:#b6ee1a;}.d{clip-path:url(#b);}</style><clipPath id="a"><rect class="a" width="63.879" height="85.172"/></clipPath><clipPath id="b"><rect class="a" width="41.922" height="55.337"/></clipPath></defs><g transform="translate(-698.188 -2088.569)"><g transform="matrix(-0.017, -1, 1, -0.017, 741.325, 2137.934)"><g class="b" transform="translate(-31.939 -42.586)"><path class="c" d="M23.229,11.614A11.614,11.614,0,1,1,11.614,0,11.614,11.614,0,0,1,23.229,11.614" transform="translate(33.553 61.943)"/><path class="c" d="M20.648,10.324A10.324,10.324,0,1,1,10.324,0,10.324,10.324,0,0,1,20.648,10.324" transform="translate(0 33.553)"/><path class="c" d="M18.067,9.033A9.033,9.033,0,1,1,9.033,0a9.033,9.033,0,0,1,9.033,9.033" transform="translate(46.457 0)"/></g></g><g transform="matrix(-0.966, 0.259, -0.259, -0.966, 826.987, 2120.72)"><g class="d" transform="translate(-20.961 -27.669)"><path class="c" d="M15.244,7.546A7.623,7.623,0,0,1,0,7.546a7.623,7.623,0,0,1,15.244,0" transform="translate(22.02 40.245)"/><path class="c" d="M13.551,6.708A6.776,6.776,0,0,1,0,6.708a6.776,6.776,0,0,1,13.551,0" transform="translate(0 21.8)"/><path class="c" d="M11.857,5.869A5.929,5.929,0,0,1,0,5.869a5.929,5.929,0,0,1,11.857,0" transform="translate(30.489 0)"/></g></g></g></svg>