<svg xmlns="http://www.w3.org/2000/svg" xmlns:xlink="http://www.w3.org/1999/xlink" width="247.23" height="247" viewBox="0 0 247.23 247"><defs><style>.a,.b,.h,.i,.j,.k,.l{fill:none;}.a,.b{stroke:rgba(0,0,0,0);}.a{stroke-width:1.647px;}.b{stroke-width:1.647px;}.c,.d{fill:#b6ee1a;}.d{stroke:#3d3d3d;stroke-width:7.476px;}.e{clip-path:url(#a);}.f{clip-path:url(#b);}.g{opacity:0.39;}.h,.i,.j,.k,.l{stroke:#e4ff80;stroke-miterlimit:10;}.h{stroke-width:2.388px;}.i,.j,.k,.l{stroke-linecap:round;}.i{stroke-width:2.404px;}.j{stroke-width:2.404px;}.k{stroke-width:2.404px;}.l{stroke-width:2.412px;}</style><clipPath id="a"><path class="a" d="M37.38,228.064c-20.748,0-37.38-18.278-37.38-41V41C0,18.279,16.632,0,37.38,0h153.8c20.748,0,37.38,18.279,37.38,41v146.06c0,22.559-16.8,41-37.38,41Z"/></clipPath><clipPath id="b"><path class="b" d="M42.978,239.179A42.978,42.978,0,0,1,0,196.2V42.979A42.978,42.978,0,0,1,42.978,0H219.665a42.978,42.978,0,0,1,42.979,42.979V196.2a42.978,42.978,0,0,1-42.979,42.978Z" transform="translate(0 0)"/></clipPath></defs><g transform="translate(0.115)"><g transform="translate(123.5 123.5)"><g transform="translate(-123.5 -123.5)"><path class="c" d="M42.913,0H204.287C228,0,247.1,21.077,247.1,46.93V200.07c0,25.853-19.1,46.93-42.813,46.93H42.913C19.2,247,.1,225.923.1,200.07V46.93C.1,21.077,19.2,0,42.913,0Z" transform="translate(-0.1)"/><path class="d" d="M41.491,2.4H202.864c21.736,0,39.191,19.266,39.191,42.978v153.14c0,23.712-17.619,42.978-39.191,42.978H41.491C19.755,241.5,2.3,222.23,2.3,198.518V45.378C2.3,21.666,19.755,2.4,41.491,2.4Z" transform="translate(1.323 1.552)"/><g class="e" transform="translate(9.221 9.55)"><g class="f" transform="translate(-16.96 -5.598)"><g class="g" transform="translate(-15.527 -7.245)"><ellipse class="h" cx="6.587" cy="6.587" rx="6.587" ry="6.587" transform="translate(10.916)"/><ellipse class="h" cx="6.587" cy="6.587" rx="6.587" ry="6.587" transform="translate(113.833 23.877)"/><ellipse class="h" cx="6.587" cy="6.587" rx="6.587" ry="6.587" transform="translate(169.819 0.823)"/><ellipse class="h" cx="6.587" cy="6.587" rx="6.587" ry="6.587" transform="translate(51.259 51.87)"/><ellipse class="h" cx="6.587" cy="6.587" rx="6.587" ry="6.587" transform="translate(209.339 50.223)"/><ellipse class="h" cx="6.587" cy="6.587" rx="6.587" ry="6.587" transform="translate(209.339 0.823)"/><ellipse class="h" cx="6.587" cy="6.587" rx="6.587" ry="6.587" transform="translate(74.313 23.877)"/><line class="i" y1="11.527" x2="9.88" transform="translate(29.853 25.523)"/><line class="i" y1="11.527" x2="9.88" transform="translate(95.719 53.517)"/><line class="i" x1="12.185" y1="8.892" transform="translate(107.74 74.594)"/><line class="i" x1="10.539" y1="11.197" transform="translate(95.39 0.988)"/><line class="i" x1="10.539" y1="11.197" transform="translate(149.73 25.688)"/><line class="j" y1="14.491" x2="4.611" transform="translate(228.441 24.041)"/><line class="k" x1="8.563" y1="12.515" transform="translate(249.518 51.376)"/><line class="i" y1="10.868" x2="10.539" transform="translate(171.137 52.199)"/><rect class="k" width="9.88" height="9.88" transform="translate(54.553 2.47)"/><rect class="k" width="9.88" height="9.88" transform="translate(11.644 50.055) rotate(30)"/><rect class="k" width="9.88" height="9.88" transform="translate(28.043 76.333) rotate(-30)"/><rect class="k" width="9.88" height="9.88" transform="translate(135.066 2.277) rotate(30)"/><rect class="k" width="9.88" height="9.88" transform="translate(141.504 53.206) rotate(85.9)"/><rect class="k" width="9.88" height="9.88" transform="translate(82.157 74.649) rotate(85.9)"/><rect class="k" width="9.88" height="9.88" transform="translate(197.47 25.209) rotate(85.9)"/><rect class="k" width="9.88" height="9.88" transform="translate(203.156 79.924) rotate(135)"/><rect class="k" width="9.88" height="9.88" transform="translate(287.197 79.862) rotate(135)"/><rect class="k" width="9.88" height="9.88" transform="translate(274.963 25.175) rotate(85.9)"/><rect class="k" width="9.88" height="9.88" transform="translate(258.577 2.163) rotate(85.9)"/><ellipse class="h" cx="6.587" cy="6.587" rx="6.587" ry="6.587" transform="translate(251.494 145.73)"/><ellipse class="h" cx="6.587" cy="6.587" rx="6.587" ry="6.587" transform="translate(273.559 121.03)"/><ellipse class="h" cx="6.587" cy="6.587" rx="6.587" ry="6.587" transform="translate(148.577 121.853)"/><ellipse class="h" cx="6.587" cy="6.587" rx="6.587" ry="6.587" transform="translate(151.706 73.277)"/><ellipse class="h" cx="6.587" cy="6.587" rx="6.587" ry="6.587" transform="translate(232.393 74.923)"/><ellipse class="h" cx="6.587" cy="6.587" rx="6.587" ry="6.587" transform="translate(92.591 144.907)"/><ellipse class="h" cx="6.587" cy="6.587" rx="6.587" ry="6.587" transform="translate(211.151 93.86)"/><ellipse class="h" cx="6.587" cy="6.587" rx="6.587" ry="6.587" transform="translate(53.071 95.507)"/><ellipse class="h" cx="6.587" cy="6.587" rx="6.587" ry="6.587" transform="translate(53.071 144.907)"/><ellipse class="h" cx="6.587" cy="6.587" rx="6.587" ry="6.587" transform="translate(188.097 121.853)"/><line class="i" x1="9.88" y2="11.527" transform="translate(235.851 121.853)"/><line class="i" x1="9.88" y2="11.527" transform="translate(169.984 93.86)"/><line class="i" x2="10.539" y2="11.197" transform="translate(169.655 146.718)"/><line class="i" x2="10.539" y2="11.197" transform="translate(115.315 122.018)"/><line class="j" x1="4.611" y2="14.491" transform="translate(42.532 120.371)"/><line class="k" x2="8.563" y2="12.515" transform="translate(17.503 95.013)"/><line class="j" x2="7.575" y2="13.173" transform="translate(95.39 94.683)"/><rect class="k" width="9.88" height="9.88" transform="translate(221.031 156.433) rotate(180)"/><rect class="k" width="9.88" height="9.88" transform="translate(264.092 108.904) rotate(-150)"/><rect class="k" width="9.88" height="9.88" transform="translate(140.513 156.633) rotate(-150)"/><rect class="k" width="9.88" height="9.88" transform="translate(134.007 105.663) rotate(-94.1)"/><rect class="k" width="9.88" height="9.88" transform="translate(78.165 133.652) rotate(-94.1)"/><rect class="k" width="9.88" height="9.88" transform="translate(0.706 133.619) rotate(-94.1)"/><rect class="k" width="9.88" height="9.88" transform="translate(17.254 156.713) rotate(-94.1)"/><line class="i" x1="12.185" y1="8.892" transform="translate(107.74 173.394)"/><rect class="l" width="9.914" height="9.914" transform="translate(28.708 178.8) rotate(-60.113)"/><rect class="k" width="9.88" height="9.88" transform="translate(84.178 176.188) rotate(114.7)"/><rect class="k" width="9.88" height="9.88" transform="translate(203.112 178.68) rotate(135)"/><rect class="k" width="9.88" height="9.88" transform="translate(287.154 178.618) rotate(135)"/><ellipse class="h" cx="6.587" cy="6.587" rx="6.587" ry="6.587" transform="translate(251.494 244.53)"/><ellipse class="h" cx="6.587" cy="6.587" rx="6.587" ry="6.587" transform="translate(273.559 219.83)"/><ellipse class="h" cx="6.587" cy="6.587" rx="6.587" ry="6.587" transform="translate(148.577 220.653)"/><ellipse class="h" cx="6.587" cy="6.587" rx="6.587" ry="6.587" transform="translate(151.706 172.077)"/><ellipse class="h" cx="6.587" cy="6.587" rx="6.587" ry="6.587" transform="translate(232.393 173.723)"/><ellipse class="h" cx="6.587" cy="6.587" rx="6.587" ry="6.587" transform="translate(92.591 243.707)"/><ellipse class="h" cx="6.587" cy="6.587" rx="6.587" ry="6.587" transform="translate(211.151 192.66)"/><ellipse class="h" cx="6.587" cy="6.587" rx="6.587" ry="6.587" transform="translate(53.071 194.307)"/><ellipse class="h" cx="6.587" cy="6.587" rx="6.587" ry="6.587" transform="translate(53.071 243.707)"/><ellipse class="h" cx="6.587" cy="6.587" rx="6.587" ry="6.587" transform="translate(188.097 220.653)"/><line class="j" x1="4.446" y2="14.491" transform="translate(238.65 219.171)"/><line class="j" x2="5.599" y2="14.161" transform="translate(172.125 191.343)"/><line class="i" x2="10.539" y2="11.197" transform="translate(169.655 245.518)"/><line class="i" x2="10.539" y2="11.197" transform="translate(115.315 220.818)"/><line class="i" x1="11.197" y2="10.209" transform="translate(39.239 221.312)"/><line class="i" x1="2.305" y2="15.149" transform="translate(20.631 192.495)"/><line class="j" x2="13.173" y2="7.575" transform="translate(92.591 196.283)"/><rect class="k" width="9.88" height="9.88" transform="translate(221.031 255.233) rotate(180)"/><rect class="k" width="9.88" height="9.88" transform="translate(256.925 205.383) rotate(-86.4)"/><rect class="k" width="9.88" height="9.88" transform="translate(140.513 255.332) rotate(-150)"/><rect class="k" width="9.88" height="9.88" transform="matrix(-0.799, -0.602, 0.602, -0.799, 139.589, 206.189)"/><rect class="k" width="9.88" height="9.88" transform="translate(78.077 232.469) rotate(-94.1)"/><rect class="k" width="9.88" height="9.88" transform="translate(0.783 232.436) rotate(-94.1)"/><rect class="k" width="9.88" height="9.88" transform="translate(17.166 255.365) rotate(-94.1)"/></g></g></g></g></g></g></svg>