<svg xmlns="http://www.w3.org/2000/svg" width="96.936" height="148.021" viewBox="0 0 96.936 148.021"><defs><style>.a{fill:#000536;}</style></defs><g transform="translate(48.468 74.01)"><g transform="translate(-48.468 -74.01)"><path class="a" d="M47.7,79.9h-.2L51,79a17.4,17.4,0,0,0-3.3.9Z" transform="translate(-0.164 0.021)"/><path class="a" d="M91.1,111.8A33.4,33.4,0,0,1,77,139.1l-.8.5-1,.7A48.845,48.845,0,1,1,25.6,56.2a32.8,32.8,0,0,0,23.3,9.7,33.3,33.3,0,1,0,18,61.3l.6-.4.7-.5.2-.2a17.9,17.9,0,0,0,7.1-14.3,17.7,17.7,0,0,0-4-11.3,16.9,16.9,0,0,0-2.2-2.2A17.8,17.8,0,0,0,57.8,94a11.4,11.4,0,0,1-11.6,19.3H46l-1.7-1h0l-1.9-1.4a17.4,17.4,0,0,1-2.2-2.2,18,18,0,0,1,5-27.6h.1l2.3-1L51,79a32.7,32.7,0,0,1,6.6-.7,33.5,33.5,0,0,1,33.5,33.5Z" transform="translate(-0.164 0.021)"/><g transform="translate(-0.164 0.021)"><circle class="a" cx="13.2" cy="13.2" r="13.2" transform="translate(0.7 20.1)"/><circle class="a" cx="13.2" cy="13.2" r="13.2" transform="translate(70.7 20.1)"/></g><path class="a" d="M81.8,32.9a32.9,32.9,0,1,1-2.3-12.1,32.9,32.9,0,0,1,2.3,12.1Z" transform="translate(-0.164 0.021)"/><path class="a" d="M46,113.2l-1.7-1Z" transform="translate(-0.164 0.021)"/></g></g></svg>