<svg xmlns="http://www.w3.org/2000/svg" xmlns:xlink="http://www.w3.org/1999/xlink" width="812.958" height="812.958" viewBox="0 0 812.958 812.958"><defs><style>.a,.ab,.ad,.f,.j,.l,.n,.p,.r,.t,.v,.z{fill:none;}.b{clip-path:url(#a);}.c{clip-path:url(#b);}.d{opacity:0.48;}.e{clip-path:url(#c);}.ab,.ad,.f,.j,.l,.n,.p,.r,.t,.v,.z{stroke:#deff66;stroke-linecap:round;stroke-linejoin:round;}.f{stroke-width:12.096px;}.g{fill:#b6ee1a;}.h{opacity:0.33;}.i{clip-path:url(#d);}.j{stroke-width:6.486px;}.k{clip-path:url(#e);}.l{stroke-width:5.837px;}.m{clip-path:url(#f);}.n{stroke-width:8.648px;}.o{clip-path:url(#g);}.p{stroke-width:3.989px;}.q{clip-path:url(#h);}.r{stroke-width:2px;}.s{clip-path:url(#i);}.t{stroke-width:0.995px;}.u{clip-path:url(#j);}.v{stroke-width:0.995px;}.w{clip-path:url(#k);}.x{clip-path:url(#l);}.y{clip-path:url(#m);}.z{stroke-width:7.567px;}.aa{clip-path:url(#n);}.ab{stroke-width:5.405px;}.ac{clip-path:url(#o);}.ad{stroke-width:4.756px;}</style><clipPath id="a"><rect class="a" width="563.519" height="586.177"/></clipPath><clipPath id="b"><path class="a" d="M0,352.156C0,475.605,100.1,575.813,223.657,575.813s223.657-100.1,223.657-223.657S347.105,128.5,223.657,128.5,0,228.6,0,352.156" transform="translate(0 -128.5)"/></clipPath><clipPath id="c"><rect class="a" width="328.729" height="328.685"/></clipPath><clipPath id="d"><rect class="a" width="323.107" height="323.086"/></clipPath><clipPath id="e"><rect class="a" width="158.581" height="158.527"/></clipPath><clipPath id="f"><rect class="a" width="223.981" height="223.97"/></clipPath><clipPath id="g"><rect class="a" width="71.561" height="71.54"/></clipPath><clipPath id="h"><rect class="a" width="24.322" height="24.365"/></clipPath><clipPath id="i"><rect class="a" width="10.053" height="10.075"/></clipPath><clipPath id="j"><rect class="a" width="6.054" height="6.086"/></clipPath><clipPath id="k"><rect class="a" width="4.108" height="4.108"/></clipPath><clipPath id="l"><circle class="a" cx="110.477" cy="110.477" r="110.477"/></clipPath><clipPath id="m"><rect class="a" width="80.642" height="80.685"/></clipPath><clipPath id="n"><rect class="a" width="335.971" height="335.982"/></clipPath><clipPath id="o"><rect class="a" width="150.257" height="150.257"/></clipPath></defs><g transform="translate(406.479 406.479) rotate(-135)"><g class="b" transform="translate(-281.76 -293.088)"><g class="c" transform="translate(0 138.907)"><g class="d" transform="translate(288.84 -67.67)"><g class="e"><circle class="f" cx="158.257" cy="158.257" r="158.257" transform="translate(6.054 6.054)"/></g></g><path class="g" d="M447.2,352.156c0,123.449-100.1,223.657-223.656,223.657S0,475.605,0,352.156,100.1,128.5,223.657,128.5,447.313,228.6,447.313,352.156" transform="translate(0 -128.5)"/><g class="h" transform="translate(-62.481 77.507)"><g class="i"><circle class="j" cx="158.257" cy="158.257" r="158.257" transform="translate(3.243 3.243)"/></g></g><g class="h" transform="translate(67.994 144.42)"><g class="k"><circle class="l" cx="76.318" cy="76.318" r="76.318" transform="translate(2.919 2.919)"/></g></g><g class="h" transform="translate(299.434 315)"><g class="m"><circle class="n" cx="107.666" cy="107.666" r="107.666" transform="translate(-40.276 112.04) rotate(-45)"/></g></g><g class="h" transform="translate(351.429 369.158)"><g class="o"><rect class="p" width="67.562" height="67.551" transform="translate(1.946 2.054)"/></g></g><g class="h" transform="translate(58.698 119.665)"><g class="q"><rect class="r" width="22.376" height="22.366" transform="translate(1.081 0.973)"/></g></g><g class="h" transform="translate(154.906 400.722)"><g class="s"><path class="t" d="M152.78,504.14a4.54,4.54,0,1,1-4.54-4.54A4.54,4.54,0,0,1,152.78,504.14Z" transform="translate(-143.268 -499.168)"/></g></g><g class="h" transform="translate(138.15 414.559)"><g class="u"><rect class="v" width="5.081" height="5.091" transform="translate(0.54 0.54)"/></g></g><g class="h" transform="translate(139.123 373.373)"><g class="w"><rect class="v" width="3.135" height="3.113" transform="translate(0.54 0.432)"/></g></g></g><g class="x" transform="translate(342.565 0)"><path class="g" d="M537.854,110.477A110.477,110.477,0,1,1,427.377,0,110.477,110.477,0,0,1,537.854,110.477" transform="translate(-316.9 0)"/><g class="h" transform="translate(169.283 -19.998)"><g class="y"><rect class="z" width="73.075" height="73.118" transform="translate(3.783 3.783)"/></g></g><g class="h" transform="translate(-92.533 52.968)"><g class="aa"><circle class="ab" cx="165.283" cy="165.283" r="165.283" transform="translate(2.702 2.702)"/></g></g><g class="h" transform="translate(-12.107 70.048)"><g class="ac"><circle class="ad" cx="72.751" cy="72.751" r="72.751" transform="translate(-27.786 75.082) rotate(-45)"/></g></g></g></g></g></svg>